<!-- ⚠️ WARNING: THIS FILE IS GENERATED BY `$ gulp make-svg-sprites`. DO NOT EDIT MANUALLY. -->

<svg xmlns="http://www.w3.org/2000/svg" xmlns:xlink="http://www.w3.org/1999/xlink" width="0" height="0" style="position:absolute">
	
		<symbol id="symbol-calendar" viewBox="0 0 48 48">
			<path d="M12 19v16c0 .55.45 1 1 1h21c.55 0 1-.45 1-1V19H12zm5 15h-3v-3h3v3zm0-4h-3v-3h3v3zm0-4h-3v-3h3v3zm4 8h-3v-3h3v3zm0-4h-3v-3h3v3zm0-4h-3v-3h3v3zm4 8h-3v-3h3v3zm0-4h-3v-3h3v3zm0-4h-3v-3h3v3zm4 8h-3v-3h3v3zm0-4h-3v-3h3v3zm0-4h-3v-3h3v3zm4 8h-3v-3h3v3zm0-4h-3v-3h3v3zm0-4h-3v-3h3v3zm2-11v3H12v-3c0-.55.45-1 1-1h2v-1c0-.55.45-1 1-1h1c.55 0 1 .45 1 1v1h11v-1c0-.55.45-1 1-1h1c.55 0 1 .45 1 1v1h2c.55 0 1 .45 1 1z"></path>
		</symbol>
	
		<symbol id="symbol-certificate" viewBox="0 0 48 48">
			<path d="M28.88 28.088l-1.584 2.849L24.5 29.26l-2.796 1.677-1.584-2.849-1.12.017V37l5.5-5 5.5 4.993v-8.888z"></path><path d="M31.512 20.5l1.342-2.238-2.281-1.268.043-2.609-2.609.042-1.268-2.28-2.239 1.342-2.238-1.343-1.268 2.28-2.609-.042.043 2.609-2.281 1.268 1.342 2.238-1.342 2.238 2.281 1.268-.043 2.609 2.609-.042 1.268 2.28 2.238-1.343 2.238 1.343 1.268-2.28 2.609.042-.043-2.609 2.281-1.268-1.341-2.237zm-7.814-4.049l-1.01-.65-.576 1.102-1.246-.021.029 1.267-1.099.613.653.935L18.756 21l.482-.65-1.008-1.604 1.712-.913-.031-1.941 1.959.041.951-1.706 1.53 1.011.649-.479-1.302 1.692z"></path>
		</symbol>
	
		<symbol id="symbol-group" viewBox="0 0 48 48">
			<path d="M35 33.148v2.5c0 .146-.121.336-.268.336H12.268c-.147 0-.268-.191-.268-.336v-2.5c0-1.053.199-1.485 1-1.94.644-.366 4.968-2.851 7-3.724v-3.767c-.624-.454-1-1.158-1-2.233V18.5c0-2.475 1.5-4.5 4.5-4.5s4.5 2.025 4.5 4.5v2.984c0 1.064-.376 1.767-1 2.223v3.777c2.157.873 6.356 3.357 7 3.724.801.455 1 .888 1 1.94zm-22.741-3.244l.139-.08c2.281-1.301 4.102-2.295 5.451-2.976-.624-.305-1.263-.583-1.849-.761v-2.628c1-.316 1-.806 1-1.546V20.13c0-1.722-.913-3.13-3-3.13-2.087 0-3 1.408-3 3.13v1.783c0 .748 0 1.237 1 1.554v2.62c-2 .607-4.639 2.336-5.088 2.591-.557.316-.912.617-.912 1.349v1.739c0 .101.084.234.186.234h4.427c.182-.822.629-1.519 1.646-2.096zm27.829-1.226C39.639 28.423 37 26.694 35 26.087v-2.628c1-.316 1-.806 1-1.546V20.13c0-1.722-.913-3.13-3-3.13-2.087 0-3 1.408-3 3.13v1.783c0 .748 0 1.237 1 1.554v2.62c-.579.176-1.209.448-1.826.749 1.915.953 4.201 2.277 5.21 2.861l.358.207c1.016.577 1.463 1.273 1.645 2.096h4.427c.102 0 .186-.133.186-.233v-1.739c0-.733-.356-1.034-.912-1.35z"></path>
		</symbol>
	
		<symbol id="symbol-money" viewBox="0 0 48 48">
			<path d="M35 17v14h-2V19H13v-2h22zm-3 3v14H10V20h22zm-5.094 12A3.094 3.094 0 0 1 30 28.906v-3.812A3.094 3.094 0 0 1 26.906 22H15.094A3.094 3.094 0 0 1 12 25.094v3.812A3.094 3.094 0 0 1 15.094 32h11.812zM16 14v2h20v12h2V14H16zm5 15.984c-1.647 0-2.984-1.339-2.984-2.984s1.338-2.984 2.984-2.984 2.984 1.339 2.984 2.984-1.338 2.984-2.984 2.984zm0-5.097A2.115 2.115 0 0 0 18.888 27c0 1.165.947 2.113 2.112 2.113s2.112-.948 2.112-2.113A2.115 2.115 0 0 0 21 24.887z"></path>
		</symbol>
	
</svg>
